# AST/ASF file generated using VICON BodyLanguage
# -----------------------------------------------
:version 1.10
:name VICON
:units
  mass 1.0
  length 0.45
  angle deg
:documentation
   .ast/.asf automatically generated from VICON data using
   VICON BodyBuilder and BodyLanguage model FoxedUp or BRILLIANT.MOD
:root
   order TX TY TZ RX RY RZ
   axis XYZ
   position 0 0 0  
   orientation 0 0 0 
:bonedata
  begin
     id 1 
     name lhipjoint
     direction 0.566809 -0.746272 0.349008 
     length 2.40479 
     axis 0 0 0  XYZ
  end
  begin
     id 2 
     name lfemur
     direction 0.34202 -0.939693 0  
     length 7.1578  
     axis 0 0 20  XYZ
    dof rx ry rz
    limits (-160.0 20.0)
           (-70.0 70.0)
           (-60.0 70.0)
  end
  begin
     id 3 
     name ltibia
     direction 0.34202 -0.939693 0   
     length 7.49137   
     axis 0 0 20   XYZ
    dof rx
    limits (-10.0 170.0)
  end
  begin
     id 4 
     name lfoot
     direction 0.0665746 -0.182912 0.980873   
     length 2.36784   
     axis -90 7.62852e-016 20   XYZ
    dof rx rz
    limits (-45.0 90.0)
           (-70.0 20.0)
  end
  begin
     id 5 
     name ltoes
     direction 1.53601e-011 -4.22058e-011 1   
     length 1.18966   
     axis -90 7.62852e-016 20   XYZ
    dof rx
    limits (-90.0 20.0)
  end
  begin
     id 6 
     name rhipjoint
     direction -0.550236 -0.756381 0.353735   
     length 2.37265  
     axis 0 0 0  XYZ 
  end
  begin
     id 7 
     name rfemur
     direction -0.34202 -0.939693 0   
     length 7.43386   
     axis 0 0 -20   XYZ
    dof rx ry rz
    limits (-160.0 20.0)
           (-70.0 70.0)
           (-70.0 60.0)
  end
  begin
     id 8 
     name rtibia
     direction -0.34202 -0.939693 0   
     length 7.50908   
     axis 0 0 -20   XYZ
    dof rx
    limits (-10.0 170.0)
 end
 begin
     id 9 
     name rfoot
     direction -0.0683029 -0.187661 0.979856   
     length 2.41173  
     axis -90 -7.62852e-016 -20   XYZ
    dof rx rz
    limits (-45.0 90.0)
           (-20.0 70.0)
  end
  begin
     id 10 
     name rtoes
     direction -1.53528e-011 -4.21968e-011 1   
     length 1.21082   
     axis -90 -7.62852e-016 -20   XYZ
    dof rx
    limits (-90.0 20.0)
  end
  begin
     id 11 
     name lowerback
     direction 0.013823 0.995423 -0.0945635   
     length 2.04495   
     axis 0 0 0   XYZ
    dof rx ry rz
    limits (-20.0 45.0)
           (-30.0 30.0)
           (-30.0 30.0)
  end
  begin
     id 12 
     name upperback
     direction 0.0276657 0.9994 -0.020853   
     length 2.05008   
     axis 0 0 0   XYZ
    dof rx ry rz
    limits (-20.0 45.0)
           (-30.0 30.0)
           (-30.0 30.0)
  end
  begin
     id 13 
     name thorax
     direction 0.019782 0.999531 0.0233827   
     length 2.06488   
     axis 0 0 0   XYZ
    dof rx ry rz
    limits (-20.0 45.0)
           (-30.0 30.0)
           (-30.0 30.0)
  end
  begin
     id 14 
     name lowerneck
     direction -0.0308541 0.994709 0.0979874   
     length 1.75553   
     axis 0 0 0   XYZ
    dof rx ry rz
    limits (-20.0 45.0)
           (-30.0 30.0)
           (-30.0 30.0)
  end
  begin
     id 15 
     name upperneck
     direction 0.0588398 0.995804 -0.0700903   
     length 1.76878   
     axis 0 0 0   XYZ
    dof rx ry rz
    limits (-20.0 45.0)
           (-30.0 30.0)
           (-30.0 30.0)
  end
  begin
     id 16
     name head
     direction 0.0209966 0.999159 -0.0352225  
     length 1.77193  
     axis 0 0 0   XYZ
    dof rx ry rz
    limits (-20.0 45.0)
           (-30.0 30.0)
           (-30.0 30.0)
  end
  begin
     id 17 
     name lclavicle
     direction 0.938182 0.335073 -0.0868338  
     length 3.58396  
     axis 0 0 0   XYZ
    dof ry rz
    limits (-20.0 10.0)
           (0.0 20.0)
  end
  begin
     id 18 
     name lhumerus
     direction 1 -4.48971e-011 -1.26313e-017   
     length 4.983   
     axis 180 -30 -90   XYZ
    dof rx ry rz
    limits (-60.0 90.0)
           (-90.0 90.0)
           (-90.0 90.0)
  end
  begin
     id 19
     name lradius
     direction 1 -4.48948e-011 -5.89033e-027   
     length 3.48356   
     axis 180 -30 -90   XYZ
    dof rx
    limits (-10.0 170.0)
  end
  begin
     id 20
     name lwrist
     direction 1 -4.48977e-011 -1.48983e-026   
     length 1.74178   
     axis 9.0955e-015 90 90   XYZ
    dof ry
    limits (-180.0 0.0)
 end
  begin
     id 21 
     name lhand
     direction 1 -4.49046e-011 -2.98066e-026   
     length 0.715259   
     axis 1.90115e-014 90 90   XYZ
    dof rx rz
    limits (-90.0 90.0)
           (-45.0 45.0)
  end
  begin
     id 22 
     name lfingers
     direction 1 -4.48907e-011 -5.95731e-026   
     length 0.576661   
     axis 3.80223e-014 90 90   XYZ
    dof rx
    limits (0.0 90.0)
  end
  begin
     id 23
     name lthumb
     direction 0.707107 -6.34963e-011 0.707107   
     length 0.827973   
     axis -90 45 -3.84942e-014   XYZ
    dof rx rz
    limits (-45.0 45.0)
           (-45.0 45.0)
  end
  begin
     id 24 
     name rclavicle
     direction -0.909637 0.398485 -0.11735   
     length 3.44819  
     axis 0 0 0   XYZ 
    dof ry rz
    limits (-10.0 20.0)
           (-20.0 0.0)
  end
  begin
     id 25 
     name rhumerus
     direction -1 -4.48978e-011 -1.09333e-027  
     length 5.2419   
     axis 180 30 90   XYZ
    dof rx ry rz
    limits (-90.0 60.0)
           (-90.0 90.0)
           (-90.0 90.0)
  end
  begin
     id 26 
     name rradius
     direction -1 -4.48953e-011 -7.61841e-027   
     length 3.44417   
     axis 180 30 90   XYZ
    dof rx
    limits (-10.0 170.0)
  end
  begin
     id 27 
     name rwrist
     direction -1 -4.48977e-011 -1.48983e-026   
     length 1.72209   
     axis 9.0955e-015 -90 -90   XYZ
    dof ry
    limits (-180.0 0.0)
  end
  begin
     id 28
     name rhand
     direction -1 -4.49027e-011 -2.98038e-026   
     length 0.622529   
     axis 1.90115e-014 -90 -90   XYZ
    dof rx rz
    limits (-90.0 90.0)
           (-45.0 45.0)
  end
  begin
     id 29
     name rfingers
     direction -1 -4.48838e-011 -5.95531e-026   
     length 0.501899   
     axis 3.80223e-014 -90 -90   XYZ
    dof rx
    limits (0.0 90.0)
  end
  begin
     id 30
     name rthumb
     direction -0.707107 -6.34937e-011 0.707107   
     length 0.720629   
     axis -90 -45 3.84942e-014   XYZ
    dof rx rz
    limits (-45.0 45.0)
           (-45.0 45.0)
  end
:hierarchy
  begin
    root lhipjoint rhipjoint lowerback
    lhipjoint lfemur
    lfemur ltibia
    ltibia lfoot
    lfoot ltoes
    rhipjoint rfemur
    rfemur rtibia
    rtibia rfoot
    rfoot rtoes
    lowerback upperback
    upperback thorax
    thorax lowerneck lclavicle rclavicle
    lowerneck upperneck
    upperneck head
    lclavicle lhumerus
    lhumerus lradius
    lradius lwrist
    lwrist lhand lthumb
    lhand lfingers
    rclavicle rhumerus
    rhumerus rradius
    rradius rwrist
    rwrist rhand rthumb
    rhand rfingers
  end

#!OML:ASF F:\VICON\USERDATA\Patient Classification 1\PLAYGROUND\JustinFriday\JustinFriday.ASF
:FULLY-SPECIFIED
:DEGREES
141
root -18.0684 17.7047 11.6598 178.22 -43.9312 -177.256
lowerback 10.3406 1.9241 2.46774
upperback 3.72472 2.57213 -0.241996
thorax -1.79163 1.20321 -1.93158
lowerneck -0.9378 -5.46545 -8.5714
upperneck 26.3219 -10.1115 5.59584
head 9.09475 -5.66725 2.43534
rclavicle 1.89342e-014 1.46107e-014
rhumerus -28.4906 -15.875 -77.5956
rradius 25.543
rwrist -7.67583
rhand -18.4522 -23.4319
rfingers 7.12502
rthumb 7.83393 -53.2667
lclavicle 1.89342e-014 1.46107e-014
lhumerus -35.2995 6.68861 72.3125
lradius 39.3981
lwrist 4.1544
lhand -13.2836 -4.86883
lfingers 7.12502
lthumb 12.8198 24.7175
rfemur -7.78574 7.03658 23.5539
rtibia 61.2923
rfoot 9.0311 -7.94509
rtoes 7.06075
lfemur -15.0416 5.3696 -15.1739
ltibia 20.4884
lfoot -2.70377 -5.8795
ltoes 5.45976
142
root -18.1698 17.7291 11.5594 178.306 -44.1458 -177.771
lowerback 10.009 1.91911 1.08159
upperback 4.13025 2.41155 0.272704
thorax -1.28235 1.1083 -0.585222
lowerneck -1.08435 -5.62338 -8.60792
upperneck 26.1384 -10.1302 5.02453
head 9.03357 -5.71098 2.24074
rclavicle -1.89839e-014 -1.45858e-014
rhumerus -28.3861 -15.8419 -76.8009
rradius 25.3759
rwrist -7.83365
rhand -18.0684 -24.4825
rfingers 7.12502
rthumb 8.20428 -54.3032
lclavicle -1.89839e-014 -1.45858e-014
lhumerus -34.8098 6.40822 73.0334
lradius 39.0065
lwrist 4.02099
lhand -12.5132 -5.0635
lfingers 7.12502
lthumb 13.5624 24.4748
rfemur -8.66205 6.49107 23.2538
rtibia 63.2669
rfoot 8.85746 -8.75523
rtoes 7.78946
lfemur -13.8062 5.85795 -15.5705
ltibia 19.6646
lfoot -2.51252 -6.49829
ltoes 6.63266
143
root -18.2901 17.7398 11.5338 178.734 -43.2527 -177.811
lowerback 9.46298 2.08646 0.723012
upperback 4.26046 2.59902 0.744701
thorax -0.884452 1.19496 0.103923
lowerneck -1.23077 -5.73414 -9.07817
upperneck 26.0452 -10.0943 4.56667
head 9.03099 -5.76433 2.15992
rclavicle -9.05464e-014 1.83876e-014
rhumerus -28.0845 -15.3368 -75.9762
rradius 25.0303
rwrist -8.24057
rhand -17.4789 -25.2891
rfingers 7.12502
rthumb 8.77325 -55.0868
lclavicle -9.05464e-014 1.83876e-014
lhumerus -34.4035 6.49787 73.8732
lradius 38.547
lwrist 3.49325
lhand -12.3374 -4.63422
lfingers 7.12502
lthumb 13.7319 24.8927
rfemur -10.8918 6.5013 22.6792
rtibia 65.2724
rfoot 8.25711 -9.01043
rtoes 10.7005
lfemur -13.307 6.03755 -15.7866
ltibia 18.8311
lfoot -2.39209 -5.66196
ltoes 8.50828
144
root -18.3907 17.763 11.4392 178.522 -43.2776 -178.013
lowerback 9.14621 2.05327 -0.552813
upperback 4.71097 2.42143 1.39777
thorax -0.327435 1.06766 1.52773
lowerneck -1.45198 -5.76219 -9.67003
upperneck 25.9237 -9.99282 4.42889
head 9.04964 -5.76742 2.21167
rclavicle -1.49089e-014 1.64991e-014
rhumerus -27.7825 -15.3376 -75.0389
rradius 24.5812
rwrist -7.786
rhand -17.4094 -24.5077
rfingers 7.12502
rthumb 8.84026 -54.3025
lclavicle -1.49089e-014 1.64991e-014
lhumerus -33.8781 7.11912 74.6036
lradius 37.9701
lwrist 2.42833
lhand -12.1513 -4.27315
lfingers 7.12502
lthumb 13.9112 25.2415
rfemur -11.6314 6.08166 22.6581
rtibia 66.8743
rfoot 6.44334 -9.95853
rtoes 14.9474
lfemur -11.92 6.36954 -15.8961
ltibia 18.0464
lfoot -2.44862 -6.0284
ltoes 9.26492
145
root -18.4955 17.7882 11.3813 178.664 -43.3194 -178.367
lowerback 9.08245 1.92034 -1.31825
upperback 4.91204 2.17018 1.72601
thorax -0.116653 0.91539 2.32543
lowerneck -1.49238 -5.58211 -9.96904
upperneck 25.5145 -9.64794 4.49506
head 8.90491 -5.61017 2.32101
rclavicle -8.91549e-014 8.74653e-015
rhumerus -27.5846 -16.1506 -74.1455
rradius 23.8965
rwrist -6.44729
rhand -16.8287 -23.7366
rfingers 7.12502
rthumb 9.40067 -53.5069
lclavicle -8.91549e-014 8.74653e-015
lhumerus -33.4709 7.73459 74.9078
lradius 37.4722
lwrist 1.50272
lhand -11.2645 -4.53995
lfingers 7.12502
lthumb 14.7657 24.9141
rfemur -12.806 5.57545 22.285
rtibia 68.4183
rfoot 5.09617 -10.0198
rtoes 15.6597
lfemur -11.1038 5.89416 -16.2926
ltibia 17.565
lfoot -2.71836 -5.53535
ltoes 8.40348
146
root -18.6016 17.8118 11.3158 178.677 -43.0339 -178.309
lowerback 9.01375 1.8173 -1.49695
upperback 4.89876 2.02125 1.85112
thorax -0.0954522 0.836097 2.57082
lowerneck -1.27736 -5.82012 -10.3536
upperneck 25.7513 -10.0727 4.55758
head 9.01096 -5.86102 2.3657
rclavicle -2.57426e-014 -7.95139e-016
rhumerus -27.4787 -16.7167 -73.6471
rradius 22.9252
rwrist -5.63652
rhand -16.0837 -23.7698
rfingers 7.12502
rthumb 10.1195 -53.5064
lclavicle -2.57426e-014 -7.95139e-016
lhumerus -33.3106 7.81135 74.7938
lradius 37.0741
lwrist 1.20218
lhand -10.2594 -4.94439
lfingers 7.12502
lthumb 15.7338 24.436
rfemur -14.11 5.30878 22.3343
rtibia 69.6066
rfoot 4.3768 -9.84201
rtoes 13.1385
lfemur -10.3635 6.05041 -16.2749
ltibia 16.9734
lfoot -2.68234 -5.49085
ltoes 8.98606
147
root -18.7127 17.8354 11.2583 178.864 -42.4902 -178.002
lowerback 8.90869 1.7321 -0.918877
upperback 4.55809 1.98191 1.6143
thorax -0.361525 0.845977 2.00181
lowerneck -1.00467 -5.76443 -9.97436
upperneck 25.9481 -10.1543 4.63632
head 9.01703 -5.88727 2.33047
rclavicle -7.01213e-014 1.55052e-014
rhumerus -28.8803 -19.1663 -72.9161
rradius 23.6803
rwrist -2.84813
rhand -14.9655 -24.0261
rfingers 7.12502
rthumb 11.198 -53.7073
lclavicle -7.01213e-014 1.55052e-014
lhumerus -33.4167 7.14848 74.3448
lradius 36.8239
lwrist 1.41244
lhand -10.0732 -5.0557
lfingers 7.12502
lthumb 15.9132 24.3105
rfemur -16.0121 5.01919 22.4373
rtibia 70.7305
rfoot 3.87828 -9.4506
rtoes 11.7064
lfemur -10.2521 6.21829 -16.0845
ltibia 16.9499
lfoot -3.03867 -5.26587
ltoes 9.71759
